<?xml version="1.0" encoding="UTF-8" standalone="no"?>
<!-- Created with Inkscape (http://www.inkscape.org/) -->

<svg
   width="32"
   height="32"
   viewBox="0 0 8.4666669 8.4666668"
   version="1.1"
   id="svg859"
   xmlns="http://www.w3.org/2000/svg"
   xmlns:svg="http://www.w3.org/2000/svg"
   xmlns:rdf="http://www.w3.org/1999/02/22-rdf-syntax-ns#"
   xmlns:cc="http://creativecommons.org/ns#"
   xmlns:dc="http://purl.org/dc/elements/1.1/">
  <defs
     id="defs853" />
  <metadata
     id="metadata856">
    <rdf:RDF>
      <cc:Work
         rdf:about="">
        <dc:format>image/svg+xml</dc:format>
        <dc:type
           rdf:resource="http://purl.org/dc/dcmitype/StillImage" />
      </cc:Work>
    </rdf:RDF>
  </metadata>
  <path
     style="fill:#295e9e;fill-opacity:1;stroke-width:0.0629695"
     d="M 3.949876,7.9435679 C 3.561093,7.7814231 3.5775123,7.5780518 4.0751042,6.3924686 4.5241037,5.3226637 4.7916897,4.5473029 4.7322423,4.4883377 4.7106079,4.4668793 4.5710343,4.4697458 4.4220762,4.4947081 4.2014695,4.5316769 4.0846307,4.6093155 3.7920451,4.9133599 3.4983519,5.2185554 3.4012624,5.2828943 3.2596517,5.2661609 3.1643942,5.2548979 3.0477671,5.1875352 3.0004796,5.1164498 2.925229,5.0033292 2.933935,4.9485592 3.07025,4.677455 3.2516067,4.3167737 3.7582245,3.7684987 4.0620707,3.6040784 4.2533601,3.5005663 4.4542843,3.4897142 6.1793428,3.4897142 c 1.785501,0 1.9143389,0.00755 2.039053,0.1194689 0.1997323,0.1792423 0.1823664,0.5542158 -0.033469,0.722613 -0.1412911,0.1102377 -0.2554967,0.129979 -0.7519534,0.129979 -0.4755709,0 -0.5925612,0.018614 -0.6237567,0.09925 -0.02112,0.054591 -0.055531,0.4144073 -0.076472,0.7995988 -0.037644,0.6925027 0.00863,1.0513701 0.2362777,1.8320944 C 7.0638384,7.5178982 6.9536244,7.7733185 6.6545401,7.9215031 5.8888812,8.3008611 5.5548386,7.1006481 5.9185368,5.277052 6.0045268,4.8458961 6.0749919,4.484454 6.0751247,4.4738476 c 1.328e-4,-0.010602 -0.1201998,-0.010602 -0.2674062,0 L 5.5400699,4.4931354 5.1710605,5.9355479 C 4.9681092,6.7288733 4.7400148,7.4890043 4.664188,7.6247271 4.4873507,7.9412495 4.2250489,8.0583311 3.949876,7.9435679 Z"
     id="path1496" />
  <text
     xml:space="preserve"
     style="color:#000000;font-style:normal;font-variant:normal;font-weight:bold;font-stretch:normal;font-size:9.33715px;line-height:125%;font-family:'Noto Sans';-inkscape-font-specification:'Noto Sans, Bold';font-variant-ligatures:normal;font-variant-caps:normal;font-variant-numeric:normal;font-variant-east-asian:normal;text-indent:0;text-align:start;text-decoration:none;text-decoration-line:none;letter-spacing:0px;word-spacing:0px;text-transform:none;writing-mode:lr-tb;direction:ltr;text-anchor:start;display:inline;overflow:visible;visibility:visible;fill:#295e9e;fill-opacity:1;fill-rule:nonzero;stroke:none;stroke-width:0.500204px;stroke-linecap:butt;stroke-linejoin:miter;stroke-miterlimit:4;stroke-dasharray:none;stroke-dashoffset:0;stroke-opacity:1;marker:none;marker-start:none;marker-mid:none;marker-end:none"
     x="0.08395002"
     y="7.1263981"
     id="text2937"><tspan
       id="tspan2935"
       style="font-style:normal;font-variant:normal;font-weight:bold;font-stretch:normal;font-size:9.33715px;font-family:'Noto Sans';-inkscape-font-specification:'Noto Sans, Bold';font-variant-ligatures:normal;font-variant-caps:normal;font-variant-numeric:normal;font-variant-east-asian:normal;fill:#295e9e;fill-opacity:1;stroke-width:0.500204px"
       x="0.08395002"
       y="7.1263981">?</tspan></text>
</svg>
